# xmcd
#
# Track frame offsets:
#	150
#	10002
#	21184
#	33455
#	42128
#	54377
#	67416
#	78744
#	92091
#	101924
#
# Disc length: 1526 seconds
#
# Revision: 2
# Processed by: cddbd v1.5.2PL0 Copyright (c) Steve Scherf et al.
# Submitted via: audiograbber 1.83.01
#
DISCID=8105f40a
DTITLE=Dalida - Loin De Moi
DYEAR=1961
DGENRE=Variété Française
TTITLE0=Loin De Moi
TTITLE1=Plus Loin Que La Terre
TTITLE2=Comme Une Symphonie
TTITLE3=Avec Une Poignee De Terre
TTITLE4=Nuit D'Espagne
TTITLE5=Cordoba
TTITLE6=Tu Ne Sais Pas
TTITLE7=Reste Encore Avec Moi
TTITLE8=Tu Peux Le Prendre
TTITLE9=Protegez-Moi Seigneur
EXTD=YEAR: 1961
EXTT0=
EXTT1=
EXTT2=
EXTT3=
EXTT4=
EXTT5=
EXTT6=
EXTT7=
EXTT8=
EXTT9=
PLAYORDER=
